<?xml version="1.0" encoding="UTF-8"?>
<svg xmlns="http://www.w3.org/2000/svg" xmlns:xlink="http://www.w3.org/1999/xlink" width="25pt" height="25pt" viewBox="0 0 25 25" version="1.1">
<defs>
<linearGradient id="linear0" gradientUnits="userSpaceOnUse" x1="52.610535" y1="21.726852" x2="52.610535" y2="181.72685" gradientTransform="matrix(0.123771,0,0,0.12494,-1.826376,-0.215753)">
<stop offset="0" style="stop-color:rgb(98.039216%,98.039216%,98.039216%);stop-opacity:1;"/>
<stop offset="1" style="stop-color:rgb(94.117647%,94.117647%,94.117647%);stop-opacity:1;"/>
</linearGradient>
</defs>
<g id="surface1">
<path style=" stroke:none;fill-rule:nonzero;fill:url(#linear0);" d="M 4.683594 22.488281 L 13.453125 22.488281 C 17.679688 22.488281 20.304688 20.300781 20.304688 16.796875 L 20.304688 16.769531 C 20.304688 14.148438 18.3125 12.183594 15.554688 11.972656 L 15.554688 11.890625 C 17.738281 11.601562 19.382812 9.730469 19.382812 7.542969 L 19.382812 7.515625 C 19.382812 4.4375 17.035156 2.5 13.304688 2.5 L 4.683594 2.5 Z M 12.234375 5.601562 C 14.167969 5.601562 15.308594 6.515625 15.308594 8.109375 L 15.308594 8.136719 C 15.308594 9.867188 14.058594 10.851562 11.726562 10.851562 L 8.828125 10.851562 L 8.828125 5.601562 Z M 12.21875 13.691406 C 14.757812 13.691406 16.074219 14.675781 16.074219 16.503906 L 16.074219 16.53125 C 16.074219 18.386719 14.773438 19.371094 12.398438 19.371094 L 8.828125 19.371094 L 8.828125 13.691406 Z M 12.21875 13.691406 "/>
</g>
</svg>
