<?xml version="1.0" encoding="UTF-8"?>
<svg xmlns="http://www.w3.org/2000/svg" xmlns:xlink="http://www.w3.org/1999/xlink" width="25pt" height="25pt" viewBox="0 0 25 25" version="1.1">
<defs>
<linearGradient id="linear0" gradientUnits="userSpaceOnUse" x1="49.999805" y1="305" x2="49.999901" y2="144.99992" gradientTransform="matrix(0.12494,0,0,0.12494,-4.997599,-15.61753)">
<stop offset="0" style="stop-color:rgb(94.117647%,94.117647%,94.117647%);stop-opacity:1;"/>
<stop offset="1" style="stop-color:rgb(98.039216%,98.039216%,98.039216%);stop-opacity:1;"/>
</linearGradient>
<linearGradient id="linear1" gradientUnits="userSpaceOnUse" x1="190.00015" y1="94.999878" x2="190.00024" y2="-65.000191" gradientTransform="matrix(0.12494,0,0,0.12494,-4.997612,10.61995)">
<stop offset="0" style="stop-color:rgb(94.117647%,94.117647%,94.117647%);stop-opacity:1;"/>
<stop offset="1" style="stop-color:rgb(98.039216%,98.039216%,98.039216%);stop-opacity:1;"/>
</linearGradient>
<linearGradient id="linear2" gradientUnits="userSpaceOnUse" x1="-168.26192" y1="162.4207" x2="187.45667" y2="-107.75477" gradientTransform="matrix(0.052685,0,0,0.0578052,13.862507,2.480601)">
<stop offset="0" style="stop-color:rgb(33.333333%,60%,100%);stop-opacity:1;"/>
<stop offset="1" style="stop-color:rgb(16.470588%,49.803922%,100%);stop-opacity:1;"/>
</linearGradient>
</defs>
<g id="surface1">
<path style=" stroke:none;fill-rule:evenodd;fill:url(#linear0);" d="M 1.25 2.5 L 1.25 6.871094 L 18.742188 6.871094 L 18.742188 2.5 Z M 1.25 2.5 "/>
<path style=" stroke:none;fill-rule:evenodd;fill:url(#linear1);" d="M 1.25 13.117188 L 1.25 22.488281 L 18.742188 22.488281 L 18.742188 13.117188 Z M 1.25 13.117188 "/>
<path style=" stroke:none;fill-rule:evenodd;fill:rgb(90.196078%,90.196078%,90.196078%);fill-opacity:1;" d="M 5.308594 14.992188 L 16.867188 14.992188 L 16.867188 15.617188 L 5.308594 15.617188 Z M 5.308594 14.992188 "/>
<path style=" stroke:none;fill-rule:evenodd;fill:rgb(90.196078%,90.196078%,90.196078%);fill-opacity:1;" d="M 5.308594 17.492188 L 16.867188 17.492188 L 16.867188 18.117188 L 5.308594 18.117188 Z M 5.308594 17.492188 "/>
<path style=" stroke:none;fill-rule:evenodd;fill:rgb(90.196078%,90.196078%,90.196078%);fill-opacity:1;" d="M 5.308594 19.992188 L 16.867188 19.992188 L 16.867188 20.613281 L 5.308594 20.613281 Z M 5.308594 19.992188 "/>
<path style=" stroke:none;fill-rule:evenodd;fill:rgb(90.196078%,90.196078%,90.196078%);fill-opacity:1;" d="M 5.308594 4.371094 L 16.867188 4.371094 L 16.867188 4.996094 L 5.308594 4.996094 Z M 5.308594 4.371094 "/>
<path style=" stroke:none;fill-rule:evenodd;fill:rgb(85.098039%,85.098039%,85.098039%);fill-opacity:1;" d="M 4.0625 15.304688 C 4.0625 15.5625 3.851562 15.773438 3.59375 15.773438 C 3.332031 15.773438 3.125 15.5625 3.125 15.304688 C 3.125 15.046875 3.332031 14.835938 3.59375 14.835938 C 3.851562 14.835938 4.0625 15.046875 4.0625 15.304688 Z M 4.0625 15.304688 "/>
<path style=" stroke:none;fill-rule:evenodd;fill:url(#linear2);" d="M 4.996094 8.121094 L 4.996094 11.871094 L 20.242188 11.871094 L 22.488281 9.996094 L 20.242188 8.121094 Z M 4.996094 8.121094 "/>
<path style=" stroke:none;fill-rule:evenodd;fill:rgb(85.098039%,85.098039%,85.098039%);fill-opacity:1;" d="M 4.0625 17.804688 C 4.0625 18.0625 3.851562 18.273438 3.59375 18.273438 C 3.332031 18.273438 3.125 18.0625 3.125 17.804688 C 3.125 17.546875 3.332031 17.335938 3.59375 17.335938 C 3.851562 17.335938 4.0625 17.546875 4.0625 17.804688 Z M 4.0625 17.804688 "/>
<path style=" stroke:none;fill-rule:evenodd;fill:rgb(85.098039%,85.098039%,85.098039%);fill-opacity:1;" d="M 4.0625 20.304688 C 4.0625 20.5625 3.851562 20.769531 3.59375 20.769531 C 3.332031 20.769531 3.125 20.5625 3.125 20.304688 C 3.125 20.042969 3.332031 19.835938 3.59375 19.835938 C 3.851562 19.835938 4.0625 20.042969 4.0625 20.304688 Z M 4.0625 20.304688 "/>
<path style=" stroke:none;fill-rule:evenodd;fill:rgb(85.098039%,85.098039%,85.098039%);fill-opacity:1;" d="M 4.0625 4.683594 C 4.0625 4.945312 3.851562 5.152344 3.59375 5.152344 C 3.332031 5.152344 3.125 4.945312 3.125 4.683594 C 3.125 4.425781 3.332031 4.214844 3.59375 4.214844 C 3.851562 4.214844 4.0625 4.425781 4.0625 4.683594 Z M 4.0625 4.683594 "/>
<path style=" stroke:none;fill-rule:evenodd;fill:rgb(16.470588%,49.803922%,100%);fill-opacity:1;" d="M 4.996094 9.996094 L 4.996094 11.871094 L 20.242188 11.871094 L 22.488281 9.996094 Z M 4.996094 9.996094 "/>
<path style=" stroke:none;fill-rule:evenodd;fill:rgb(0%,40%,100%);fill-opacity:1;" d="M 7.496094 9.996094 C 7.496094 10.339844 7.214844 10.621094 6.871094 10.621094 C 6.527344 10.621094 6.246094 10.339844 6.246094 9.996094 C 6.246094 9.648438 6.527344 9.371094 6.871094 9.371094 C 7.214844 9.371094 7.496094 9.648438 7.496094 9.996094 Z M 7.496094 9.996094 "/>
</g>
</svg>
