<?xml version="1.0" encoding="UTF-8"?>
<svg xmlns="http://www.w3.org/2000/svg" xmlns:xlink="http://www.w3.org/1999/xlink" width="25pt" height="25pt" viewBox="0 0 25 25" version="1.1">
<defs>
<linearGradient id="linear0" gradientUnits="userSpaceOnUse" x1="50" y1="180" x2="50" y2="20" gradientTransform="matrix(0.12494,0,0,0.12494,0.000000624702,0)">
<stop offset="0" style="stop-color:rgb(94.117647%,94.117647%,94.117647%);stop-opacity:1;"/>
<stop offset="1" style="stop-color:rgb(98.039216%,98.039216%,98.039216%);stop-opacity:1;"/>
</linearGradient>
<linearGradient id="linear1" gradientUnits="userSpaceOnUse" x1="213.59152" y1="205.64912" x2="-100.87595" y2="-140.17542" gradientTransform="matrix(0.052685,0,0,0.0578052,11.363683,10.60172)">
<stop offset="0" style="stop-color:rgb(37.254902%,82.745098%,37.254902%);stop-opacity:1;"/>
<stop offset="1" style="stop-color:rgb(52.941176%,87.058824%,52.941176%);stop-opacity:1;"/>
</linearGradient>
<linearGradient id="linear2" gradientUnits="userSpaceOnUse" x1="-59.999859" y1="155.00003" x2="91.248772" y2="29.687819" gradientTransform="matrix(0.12494,0,0,0.12494,0.00000176313,0)">
<stop offset="0" style="stop-color:rgb(52.941176%,87.058824%,52.941176%);stop-opacity:1;"/>
<stop offset="1" style="stop-color:rgb(37.254902%,82.745098%,37.254902%);stop-opacity:1;"/>
</linearGradient>
</defs>
<g id="surface1">
<path style=" stroke:none;fill-rule:evenodd;fill:url(#linear0);" d="M 6.246094 2.5 L 23.738281 2.5 L 23.738281 22.488281 L 6.246094 22.488281 Z M 6.246094 2.5 "/>
<path style=" stroke:none;fill-rule:evenodd;fill:url(#linear1);" d="M 2.5 16.242188 L 2.5 19.992188 L 17.742188 19.992188 L 19.992188 18.117188 L 17.742188 16.242188 Z M 2.5 16.242188 "/>
<path style=" stroke:none;fill-rule:evenodd;fill:rgb(37.254902%,82.745098%,37.254902%);fill-opacity:1;" d="M 2.5 18.117188 L 2.5 19.992188 L 17.742188 19.992188 L 19.992188 18.117188 Z M 2.5 18.117188 "/>
<path style=" stroke:none;fill-rule:evenodd;fill:rgb(21.568627%,78.431373%,21.568627%);fill-opacity:1;" d="M 4.996094 18.117188 C 4.996094 18.460938 4.71875 18.742188 4.371094 18.742188 C 4.027344 18.742188 3.75 18.460938 3.75 18.117188 C 3.75 17.769531 4.027344 17.492188 4.371094 17.492188 C 4.71875 17.492188 4.996094 17.769531 4.996094 18.117188 Z M 4.996094 18.117188 "/>
<path style=" stroke:none;fill-rule:evenodd;fill:rgb(90.196078%,90.196078%,90.196078%);fill-opacity:1;" d="M 10.308594 4.371094 L 21.863281 4.371094 L 21.863281 4.996094 L 10.308594 4.996094 Z M 10.308594 4.371094 "/>
<path style=" stroke:none;fill-rule:evenodd;fill:rgb(90.196078%,90.196078%,90.196078%);fill-opacity:1;" d="M 10.308594 6.871094 L 21.863281 6.871094 L 21.863281 7.496094 L 10.308594 7.496094 Z M 10.308594 6.871094 "/>
<path style=" stroke:none;fill-rule:evenodd;fill:rgb(90.196078%,90.196078%,90.196078%);fill-opacity:1;" d="M 10.308594 9.371094 L 21.863281 9.371094 L 21.863281 9.996094 L 10.308594 9.996094 Z M 10.308594 9.371094 "/>
<path style=" stroke:none;fill-rule:evenodd;fill:rgb(90.196078%,90.196078%,90.196078%);fill-opacity:1;" d="M 10.308594 11.871094 L 21.863281 11.871094 L 21.863281 12.492188 L 10.308594 12.492188 Z M 10.308594 11.871094 "/>
<path style=" stroke:none;fill-rule:evenodd;fill:rgb(90.196078%,90.196078%,90.196078%);fill-opacity:1;" d="M 10.308594 14.367188 L 21.863281 14.367188 L 21.863281 14.992188 L 10.308594 14.992188 Z M 10.308594 14.367188 "/>
<path style=" stroke:none;fill-rule:evenodd;fill:rgb(85.098039%,85.098039%,85.098039%);fill-opacity:1;" d="M 9.058594 14.679688 C 9.058594 14.9375 8.847656 15.148438 8.589844 15.148438 C 8.332031 15.148438 8.121094 14.9375 8.121094 14.679688 C 8.121094 14.421875 8.332031 14.210938 8.589844 14.210938 C 8.847656 14.210938 9.058594 14.421875 9.058594 14.679688 Z M 9.058594 14.679688 "/>
<path style=" stroke:none;fill-rule:evenodd;fill:url(#linear2);" d="M 11.246094 8.746094 C 11.246094 11.507812 9.007812 13.742188 6.246094 13.742188 C 3.488281 13.742188 1.25 11.507812 1.25 8.746094 C 1.25 5.984375 3.488281 3.75 6.246094 3.75 C 9.007812 3.75 11.246094 5.984375 11.246094 8.746094 Z M 11.246094 8.746094 "/>
<path style=" stroke:none;fill-rule:evenodd;fill:rgb(76.862745%,93.333333%,76.862745%);fill-opacity:1;" d="M 5.464844 5.933594 L 5.464844 7.964844 L 3.4375 7.964844 L 3.4375 9.527344 L 5.464844 9.527344 L 5.464844 11.558594 L 7.027344 11.558594 L 7.027344 9.527344 L 9.058594 9.527344 L 9.058594 7.964844 L 7.027344 7.964844 L 7.027344 5.933594 Z M 5.464844 5.933594 "/>
</g>
</svg>
