<?xml version="1.0" encoding="UTF-8"?>
<svg xmlns="http://www.w3.org/2000/svg" xmlns:xlink="http://www.w3.org/1999/xlink" width="25pt" height="25pt" viewBox="0 0 25 25" version="1.1">
<defs>
<linearGradient id="linear0" gradientUnits="userSpaceOnUse" x1="-28.133207" y1="5.968322" x2="-28.133207" y2="166.80646" gradientTransform="matrix(0.125595,0,0,0.124289,8.531001,1.757009)">
<stop offset="0" style="stop-color:rgb(98.039216%,98.039216%,98.039216%);stop-opacity:1;"/>
<stop offset="1" style="stop-color:rgb(94.117647%,94.117647%,94.117647%);stop-opacity:1;"/>
</linearGradient>
</defs>
<g id="surface1">
<path style=" stroke:none;fill-rule:nonzero;fill:url(#linear0);" d="M 4.996094 22.488281 L 13.101562 22.488281 C 17.402344 22.488281 19.992188 20.355469 19.992188 16.851562 L 19.992188 16.824219 C 19.992188 14.191406 18.128906 12.238281 15.257812 11.945312 L 15.257812 11.890625 C 17.386719 11.585938 18.996094 9.632812 18.996094 7.527344 L 18.996094 7.5 C 18.996094 4.480469 16.644531 2.5 13.0625 2.5 L 4.996094 2.5 Z M 12.304688 5.035156 C 14.574219 5.035156 15.875 6.046875 15.875 7.875 L 15.875 7.902344 C 15.875 9.910156 14.375 11.019531 11.605469 11.019531 L 8.132812 11.019531 L 8.132812 5.035156 Z M 12.25 13.414062 C 15.246094 13.414062 16.785156 14.523438 16.785156 16.671875 L 16.785156 16.699219 C 16.785156 18.832031 15.273438 19.953125 12.460938 19.953125 L 8.132812 19.953125 L 8.132812 13.414062 Z M 12.25 13.414062 "/>
</g>
</svg>
