<?xml version="1.0" encoding="UTF-8"?>
<svg xmlns="http://www.w3.org/2000/svg" xmlns:xlink="http://www.w3.org/1999/xlink" width="25pt" height="25pt" viewBox="0 0 25 25" version="1.1">
<defs>
<linearGradient id="linear0" gradientUnits="userSpaceOnUse" x1="50" y1="180" x2="50" y2="20" gradientTransform="matrix(0.12494,0,0,0.12494,0.0000125101,0)">
<stop offset="0" style="stop-color:rgb(94.117647%,94.117647%,94.117647%);stop-opacity:1;"/>
<stop offset="1" style="stop-color:rgb(98.039216%,98.039216%,98.039216%);stop-opacity:1;"/>
</linearGradient>
<linearGradient id="linear1" gradientUnits="userSpaceOnUse" x1="50" y1="180" x2="50" y2="20" gradientTransform="matrix(0.12494,0,0,0.12494,0.000012494,0)">
<stop offset="0" style="stop-color:rgb(94.117647%,94.117647%,94.117647%);stop-opacity:1;"/>
<stop offset="1" style="stop-color:rgb(98.039216%,98.039216%,98.039216%);stop-opacity:1;"/>
</linearGradient>
<linearGradient id="linear2" gradientUnits="userSpaceOnUse" x1="10.5" y1="10.5" x2="160" y2="134.99979" gradientTransform="matrix(-0.12494,0,0,0.12494,12.494031,0)">
<stop offset="0" style="stop-color:rgb(100%,16.470588%,16.470588%);stop-opacity:1;"/>
<stop offset="1" style="stop-color:rgb(100%,33.333333%,33.333333%);stop-opacity:1;"/>
</linearGradient>
<linearGradient id="linear3" gradientUnits="userSpaceOnUse" x1="10.5" y1="10.5" x2="160" y2="134.99979" gradientTransform="matrix(-0.12494,0,0,0.12494,22.489256,0)">
<stop offset="0" style="stop-color:rgb(100%,16.470588%,16.470588%);stop-opacity:1;"/>
<stop offset="1" style="stop-color:rgb(100%,33.333333%,33.333333%);stop-opacity:1;"/>
</linearGradient>
</defs>
<g id="surface1">
<path style=" stroke:none;fill-rule:evenodd;fill:url(#linear0);" d="M 6.246094 18.117188 L 6.246094 22.488281 L 23.738281 22.488281 L 23.738281 18.117188 Z M 6.246094 18.117188 "/>
<path style=" stroke:none;fill-rule:evenodd;fill:url(#linear1);" d="M 6.246094 2.5 L 6.246094 11.871094 L 23.738281 11.871094 L 23.738281 2.5 Z M 6.246094 2.5 "/>
<path style=" stroke:none;fill-rule:evenodd;fill:rgb(90.196078%,90.196078%,90.196078%);fill-opacity:1;" d="M 10.308594 4.371094 L 21.863281 4.371094 L 21.863281 4.996094 L 10.308594 4.996094 Z M 10.308594 4.371094 "/>
<path style=" stroke:none;fill-rule:evenodd;fill:rgb(90.196078%,90.196078%,90.196078%);fill-opacity:1;" d="M 10.308594 6.871094 L 21.863281 6.871094 L 21.863281 7.496094 L 10.308594 7.496094 Z M 10.308594 6.871094 "/>
<path style=" stroke:none;fill-rule:evenodd;fill:rgb(90.196078%,90.196078%,90.196078%);fill-opacity:1;" d="M 10.308594 9.371094 L 21.863281 9.371094 L 21.863281 9.996094 L 10.308594 9.996094 Z M 10.308594 9.371094 "/>
<path style=" stroke:none;fill-rule:evenodd;fill:rgb(90.196078%,90.196078%,90.196078%);fill-opacity:1;" d="M 10.308594 19.992188 L 21.863281 19.992188 L 21.863281 20.613281 L 10.308594 20.613281 Z M 10.308594 19.992188 "/>
<path style=" stroke:none;fill-rule:evenodd;fill:url(#linear2);" d="M 1.25 6.246094 C 1.25 9.007812 3.488281 11.246094 6.246094 11.246094 C 9.007812 11.246094 11.246094 9.007812 11.246094 6.246094 C 11.246094 3.488281 9.007812 1.25 6.246094 1.25 C 3.488281 1.25 1.25 3.488281 1.25 6.246094 Z M 1.25 6.246094 "/>
<path style=" stroke:none;fill-rule:evenodd;fill:rgb(85.098039%,85.098039%,85.098039%);fill-opacity:1;" d="M 9.058594 20.304688 C 9.058594 20.5625 8.847656 20.769531 8.589844 20.769531 C 8.332031 20.769531 8.121094 20.5625 8.121094 20.304688 C 8.121094 20.042969 8.332031 19.835938 8.589844 19.835938 C 8.847656 19.835938 9.058594 20.042969 9.058594 20.304688 Z M 9.058594 20.304688 "/>
<path style=" stroke:none;fill-rule:evenodd;fill:url(#linear3);" d="M 19.992188 13.117188 L 2.5 13.117188 L 2.5 16.867188 L 19.992188 16.867188 Z M 19.992188 13.117188 "/>
<path style=" stroke:none;fill-rule:evenodd;fill:rgb(100%,16.470588%,16.470588%);fill-opacity:1;" d="M 2.5 14.992188 L 19.992188 14.992188 L 19.992188 16.867188 L 2.5 16.867188 Z M 2.5 14.992188 "/>
<path style=" stroke:none;fill-rule:evenodd;fill:rgb(96.078431%,0%,0%);fill-opacity:1;" d="M 4.996094 14.992188 C 4.996094 15.335938 4.71875 15.617188 4.371094 15.617188 C 4.027344 15.617188 3.75 15.335938 3.75 14.992188 C 3.75 14.648438 4.027344 14.367188 4.371094 14.367188 C 4.71875 14.367188 4.996094 14.648438 4.996094 14.992188 Z M 4.996094 14.992188 "/>
<path style=" stroke:none;fill-rule:evenodd;fill:rgb(100%,50.196078%,50.196078%);fill-opacity:1;" d="M 6.246094 3.125 C 5.742188 3.125 5.25 3.246094 4.800781 3.476562 L 9.015625 7.691406 C 9.25 7.246094 9.371094 6.75 9.371094 6.246094 C 9.371094 4.523438 7.972656 3.125 6.246094 3.125 Z M 3.476562 4.800781 C 3.246094 5.25 3.125 5.742188 3.125 6.246094 C 3.125 7.972656 4.523438 9.371094 6.246094 9.371094 C 6.75 9.371094 7.246094 9.25 7.691406 9.015625 Z M 3.476562 4.800781 "/>
</g>
</svg>
