<?xml version="1.0" encoding="UTF-8"?>
<svg xmlns="http://www.w3.org/2000/svg" xmlns:xlink="http://www.w3.org/1999/xlink" width="25pt" height="25pt" viewBox="0 0 25 25" version="1.1">
<defs>
<linearGradient id="linear0" gradientUnits="userSpaceOnUse" x1="380.58008" y1="75.589844" x2="379.77148" y2="680.31445" gradientTransform="matrix(0.0330571,0,0,0.0330571,0.000000624702,0)">
<stop offset="0" style="stop-color:rgb(14.117647%,14.117647%,14.117647%);stop-opacity:1;"/>
<stop offset="1" style="stop-color:rgb(10.196078%,10.196078%,10.196078%);stop-opacity:1;"/>
</linearGradient>
<linearGradient id="linear1" gradientUnits="userSpaceOnUse" x1="100.69514" y1="19.999813" x2="100.4812" y2="179.99986" gradientTransform="matrix(0.12494,0,0,0.12494,0.000000624702,0)">
<stop offset="0" style="stop-color:rgb(14.117647%,14.117647%,14.117647%);stop-opacity:1;"/>
<stop offset="1" style="stop-color:rgb(10.196078%,10.196078%,10.196078%);stop-opacity:1;"/>
</linearGradient>
</defs>
<g id="surface1">
<path style=" stroke:none;fill-rule:nonzero;fill:url(#linear0);" d="M 12.582031 2.5 C 8.609375 2.5 5.804688 4.722656 5.792969 7.902344 L 5.792969 7.914062 C 5.792969 9.117188 6.109375 10.117188 6.765625 10.933594 L 11.75 10.933594 C 9.359375 10.375 8.25 9.394531 8.25 7.847656 L 8.25 7.835938 C 8.25 5.972656 9.933594 4.738281 12.515625 4.722656 C 14.960938 4.722656 16.605469 5.890625 16.898438 7.863281 L 16.925781 8.050781 L 19.332031 8.050781 L 19.316406 7.847656 C 19.101562 4.683594 16.351562 2.5 12.582031 2.5 Z M 14.601562 14.054688 C 16.433594 14.65625 17.21875 15.558594 17.21875 16.992188 L 17.21875 17.003906 C 17.21875 19.003906 15.46875 20.261719 12.6875 20.261719 C 9.894531 20.261719 8.023438 19.070312 7.742188 17.125 L 7.714844 16.9375 L 5.308594 16.9375 L 5.324219 17.125 C 5.5625 20.4375 8.382812 22.488281 12.554688 22.488281 C 16.964844 22.488281 19.679688 20.316406 19.679688 16.886719 L 19.679688 16.871094 C 19.679688 15.75 19.4375 14.824219 18.925781 14.054688 Z M 14.601562 14.054688 "/>
<path style=" stroke:none;fill-rule:evenodd;fill:url(#linear1);" d="M 4.371094 11.558594 L 20.613281 11.558594 L 20.613281 13.429688 L 4.371094 13.429688 Z M 4.371094 11.558594 "/>
</g>
</svg>
