<?xml version="1.0" encoding="UTF-8"?>
<svg xmlns="http://www.w3.org/2000/svg" xmlns:xlink="http://www.w3.org/1999/xlink" width="25pt" height="25pt" viewBox="0 0 25 25" version="1.1">
<defs>
<linearGradient id="linear0" gradientUnits="userSpaceOnUse" x1="50" y1="180" x2="50" y2="20" gradientTransform="matrix(0.12494,0,0,0.12494,-3.748197,0.00000842098)">
<stop offset="0" style="stop-color:rgb(94.117647%,94.117647%,94.117647%);stop-opacity:1;"/>
<stop offset="1" style="stop-color:rgb(98.039216%,98.039216%,98.039216%);stop-opacity:1;"/>
</linearGradient>
<linearGradient id="linear1" gradientUnits="userSpaceOnUse" x1="19.999905" y1="242.49989" x2="19.999903" y2="82.499893" gradientTransform="matrix(0.12494,0,0,0.12494,-1.874092,-3.7482)">
<stop offset="0" style="stop-color:rgb(94.117647%,94.117647%,94.117647%);stop-opacity:1;"/>
<stop offset="1" style="stop-color:rgb(98.039216%,98.039216%,98.039216%);stop-opacity:1;"/>
</linearGradient>
<linearGradient id="linear2" gradientUnits="userSpaceOnUse" x1="49.999908" y1="304.99994" x2="49.999905" y2="144.99994" gradientTransform="matrix(0.12494,0,0,0.12494,0.000012494,-7.49641)">
<stop offset="0" style="stop-color:rgb(94.117647%,94.117647%,94.117647%);stop-opacity:1;"/>
<stop offset="1" style="stop-color:rgb(98.039216%,98.039216%,98.039216%);stop-opacity:1;"/>
</linearGradient>
<linearGradient id="linear3" gradientUnits="userSpaceOnUse" x1="10" y1="20" x2="160.00023" y2="179.99992" gradientTransform="matrix(0.12494,0,0,0.12494,0.000000624702,0)">
<stop offset="0" style="stop-color:rgb(100%,80%,0%);stop-opacity:1;"/>
<stop offset="1" style="stop-color:rgb(100%,86.666667%,33.333333%);stop-opacity:1;"/>
</linearGradient>
</defs>
<g id="surface1">
<path style=" stroke:none;fill-rule:evenodd;fill:url(#linear0);" d="M 2.5 18.117188 L 2.5 22.488281 L 19.992188 22.488281 L 19.992188 18.117188 Z M 2.5 18.117188 "/>
<path style=" stroke:none;fill-rule:evenodd;fill:rgb(90.196078%,90.196078%,90.196078%);fill-opacity:1;" d="M 6.558594 19.992188 L 18.117188 19.992188 L 18.117188 20.613281 L 6.558594 20.613281 Z M 6.558594 19.992188 "/>
<path style=" stroke:none;fill-rule:evenodd;fill:rgb(85.098039%,85.098039%,85.098039%);fill-opacity:1;" d="M 5.308594 20.304688 C 5.308594 20.5625 5.101562 20.769531 4.839844 20.769531 C 4.582031 20.769531 4.371094 20.5625 4.371094 20.304688 C 4.371094 20.042969 4.582031 19.835938 4.839844 19.835938 C 5.101562 19.835938 5.308594 20.042969 5.308594 20.304688 Z M 5.308594 20.304688 "/>
<path style=" stroke:none;fill-rule:evenodd;fill:url(#linear1);" d="M 4.371094 14.367188 L 4.371094 18.742188 L 21.863281 18.742188 L 21.863281 14.367188 Z M 4.371094 14.367188 "/>
<path style=" stroke:none;fill-rule:evenodd;fill:rgb(90.196078%,90.196078%,90.196078%);fill-opacity:1;" d="M 8.433594 16.242188 L 19.992188 16.242188 L 19.992188 16.867188 L 8.433594 16.867188 Z M 8.433594 16.242188 "/>
<path style=" stroke:none;fill-rule:evenodd;fill:rgb(85.098039%,85.098039%,85.098039%);fill-opacity:1;" d="M 7.183594 16.554688 C 7.183594 16.8125 6.972656 17.023438 6.714844 17.023438 C 6.457031 17.023438 6.246094 16.8125 6.246094 16.554688 C 6.246094 16.296875 6.457031 16.085938 6.714844 16.085938 C 6.972656 16.085938 7.183594 16.296875 7.183594 16.554688 Z M 7.183594 16.554688 "/>
<path style=" stroke:none;fill-rule:evenodd;fill:url(#linear2);" d="M 6.246094 10.621094 L 6.246094 14.992188 L 23.738281 14.992188 L 23.738281 10.621094 Z M 6.246094 10.621094 "/>
<path style=" stroke:none;fill-rule:evenodd;fill:rgb(90.196078%,90.196078%,90.196078%);fill-opacity:1;" d="M 10.308594 12.492188 L 21.863281 12.492188 L 21.863281 13.117188 L 10.308594 13.117188 Z M 10.308594 12.492188 "/>
<path style=" stroke:none;fill-rule:evenodd;fill:rgb(85.098039%,85.098039%,85.098039%);fill-opacity:1;" d="M 9.058594 12.804688 C 9.058594 13.066406 8.847656 13.273438 8.589844 13.273438 C 8.332031 13.273438 8.121094 13.066406 8.121094 12.804688 C 8.121094 12.546875 8.332031 12.335938 8.589844 12.335938 C 8.847656 12.335938 9.058594 12.546875 9.058594 12.804688 Z M 9.058594 12.804688 "/>
<path style=" stroke:none;fill-rule:evenodd;fill:url(#linear3);" d="M 11.246094 7.496094 C 11.246094 10.257812 9.007812 12.492188 6.246094 12.492188 C 3.488281 12.492188 1.25 10.257812 1.25 7.496094 C 1.25 4.734375 3.488281 2.5 6.246094 2.5 C 9.007812 2.5 11.246094 4.734375 11.246094 7.496094 Z M 11.246094 7.496094 "/>
<path style=" stroke:none;fill-rule:evenodd;fill:rgb(100%,94.117647%,70.196078%);fill-opacity:1;" d="M 9.058594 7.496094 L 4.683594 9.996094 L 4.683594 4.996094 Z M 9.058594 7.496094 "/>
</g>
</svg>
